<?xml version="1.0" encoding="UTF-8"?>
<svg width="118px" height="87px" viewBox="0 0 118 87" version="1.1" xmlns="http://www.w3.org/2000/svg" xmlns:xlink="http://www.w3.org/1999/xlink">
    <!-- Generator: Sketch 44.1 (41455) - http://www.bohemiancoding.com/sketch -->
    <title>Cloudy</title>
    <desc>Created with Sketch.</desc>
    <defs>
        <path d="M514.619766,141.731622 C522.048039,143.831593 527.5,150.664756 527.5,158.770158 L527.5,159.296509 C527.5,169.069793 519.575944,177 509.801126,177 L438.198874,177 C428.433184,177 420.5,169.073877 420.5,159.296509 L420.5,158.770158 C420.5,151.664536 424.688617,145.533156 430.731806,142.715379 C429.246623,139.050137 428.425926,135.024386 428.425926,130.8 C428.425926,113.78963 441.733018,100 458.148148,100 C473.211807,100 485.658136,111.612478 487.605461,126.66996 C490.369301,124.739922 493.698893,123.613333 497.282407,123.613333 C506.8579,123.613333 514.62037,131.657284 514.62037,141.58 C514.62037,141.63059 514.620169,141.681131 514.619766,141.731622 Z" id="path-1"></path>
        <filter x="-7.9%" y="-8.4%" width="115.9%" height="122.1%" filterUnits="objectBoundingBox" id="filter-2">
            <feOffset dx="0" dy="2" in="SourceAlpha" result="shadowOffsetOuter1"></feOffset>
            <feGaussianBlur stdDeviation="2.5" in="shadowOffsetOuter1" result="shadowBlurOuter1"></feGaussianBlur>
            <feColorMatrix values="0 0 0 0 0.00485917412   0 0 0 0 0.499123697   0 0 0 0 0.608152636  0 0 0 1 0" type="matrix" in="shadowBlurOuter1"></feColorMatrix>
        </filter>
    </defs>
    <g id="Page-1" stroke="none" stroke-width="1" fill="none" fill-rule="evenodd">
        <g id="ICONS" transform="translate(-415.000000, -97.000000)">
            <g id="Cloudy">
                <use fill="black" fill-opacity="1" filter="url(#filter-2)" xlink:href="#path-1"></use>
                <use fill="#FFFFFF" fill-rule="evenodd" xlink:href="#path-1"></use>
            </g>
        </g>
    </g>
</svg>