<?xml version="1.0" encoding="UTF-8"?>
<svg width="55px" height="34px" viewBox="0 0 55 34" version="1.1" xmlns="http://www.w3.org/2000/svg" xmlns:xlink="http://www.w3.org/1999/xlink">
    <!-- Generator: Sketch 44.1 (41455) - http://www.bohemiancoding.com/sketch -->
    <title>Oval 1</title>
    <desc>Created with Sketch.</desc>
    <defs></defs>
    <g id="Page-1" stroke="none" stroke-width="1" fill="none" fill-rule="evenodd">
        <g id="Artboard-2" transform="translate(-459.000000, -493.000000)" fill="#FFFFFF">
            <g id="artwork" transform="translate(184.000000, 24.000000)">
                <path d="M284.90625,502.820505 C279.622106,502.455129 275.71875,498.337462 275.71875,493.65669 C275.71875,487.986711 280.003525,483.700704 285.671875,483.700704 C286.014921,483.700704 286.354941,483.721688 286.69068,483.762661 C288.060293,475.77556 294.83447,469.915493 303.28125,469.915493 C310.25842,469.915493 316.376361,474.647789 318.53303,481.403337 C318.553257,481.403225 318.573497,481.403169 318.59375,481.403169 C324.513552,481.403169 329.3125,486.203496 329.3125,492.125 C329.3125,497.789001 324.921852,502.427216 319.359375,502.819901 L319.359375,502.846831 L284.90625,502.846831 L284.90625,502.820505 Z" id="Oval-1"></path>
            </g>
        </g>
    </g>
</svg>