<?xml version="1.0" encoding="UTF-8"?>
<svg width="130px" height="105px" viewBox="0 0 130 105" version="1.1" xmlns="http://www.w3.org/2000/svg" xmlns:xlink="http://www.w3.org/1999/xlink">
    <!-- Generator: Sketch 44.1 (41455) - http://www.bohemiancoding.com/sketch -->
    <title>Cloudy Day</title>
    <desc>Created with Sketch.</desc>
    <defs>
        <path d="M680.650573,301.858881 C687.440945,303.716039 692.44,309.93169 692.44,317.313407 C692.44,326.163115 685.266674,333.333699 676.417928,333.333699 L610.522072,333.333699 C601.68191,333.333699 594.5,326.16117 594.5,317.313407 C594.5,310.842589 598.33514,305.269495 603.856162,302.740863 C602.5026,299.478675 601.754815,295.896824 601.754815,292.138664 C601.754815,276.971071 613.935157,264.675307 628.96037,264.675307 C642.748546,264.675307 654.141008,275.029776 655.923447,288.456042 C658.453265,286.73509 661.500931,285.730547 664.781019,285.730547 C673.545726,285.730547 680.650926,292.903076 680.650926,301.750839 C680.650926,301.786881 680.650808,301.822895 680.650573,301.858881 Z M695.862639,315.105383 C697.056716,314.85418 697.881849,313.8226 697.850355,312.418267 L697.728853,307.000475 C697.687572,305.159731 696.509262,304.625984 695.097083,305.810943 L693.155857,307.439825 C694.738928,309.611472 695.722619,312.247725 695.862639,315.105383 Z M682.315869,299.618657 C682.316123,299.580761 682.31625,299.542835 682.31625,299.50488 C682.31625,290.352022 674.919994,282.932165 665.79625,282.932165 C662.775757,282.932165 659.944597,283.745379 657.508454,285.165465 C656.278784,277.774758 652.186649,271.361936 646.42,267.124088 C651.548143,259.242393 660.501622,254.021419 670.689255,254.021419 C686.612036,254.021419 699.52,266.775309 699.52,282.50803 C699.52,290.923768 695.826531,298.487147 689.95385,303.701985 C687.85578,301.716077 685.233257,300.278493 682.315869,299.618657 Z M670.61,241 C671.594359,241 672.38,241.793448 672.38,242.772216 L672.38,251.065437 C672.38,252.042571 671.587544,252.837654 670.61,252.837654 C669.625641,252.837654 668.84,252.044205 668.84,251.065437 L668.84,242.772216 C668.84,241.795083 669.632456,241 670.61,241 Z M702.466579,282.431788 L710.733421,282.431788 C711.707446,282.431788 712.5,283.226773 712.5,284.207436 C712.5,285.194936 711.709076,285.983084 710.733421,285.983084 L702.466579,285.983084 C701.492554,285.983084 700.7,285.188099 700.7,284.207436 C700.7,283.219936 701.490924,282.431788 702.466579,282.431788 Z M701.789918,256.552631 C703.610772,256.259882 704.598724,257.429561 703.992341,259.177376 L701.538058,266.251497 C700.933568,267.993853 699.478817,268.256608 698.299969,266.851712 L693.243703,260.825888 C692.059845,259.415022 692.570529,258.034886 694.397087,257.74122 L701.789918,256.552631 Z M638.408869,256.809828 C637.804897,255.067587 638.785506,253.89123 640.61186,254.184405 L648.003867,255.371006 C649.824517,255.663266 650.335482,257.05019 649.15633,258.455448 L644.098757,264.482828 C642.914594,265.894059 641.466916,265.63118 640.861052,263.883481 L638.408869,256.809828 Z" id="path-1"></path>
        <filter x="-12.4%" y="-8.5%" width="120.8%" height="121.3%" filterUnits="objectBoundingBox" id="filter-2">
            <feOffset dx="0" dy="2" in="SourceAlpha" result="shadowOffsetOuter1"></feOffset>
            <feGaussianBlur stdDeviation="3" in="shadowOffsetOuter1" result="shadowBlurOuter1"></feGaussianBlur>
            <feColorMatrix values="0 0 0 0 0.00485917412   0 0 0 0 0.499123697   0 0 0 0 0.608152636  0 0 0 1 0" type="matrix" in="shadowBlurOuter1"></feColorMatrix>
        </filter>
    </defs>
    <g id="Page-1" stroke="none" stroke-width="1" fill="none" fill-rule="evenodd">
        <g id="ICONS" transform="translate(-588.000000, -237.000000)">
            <g id="Cloudy-Day">
                <use fill="black" fill-opacity="1" filter="url(#filter-2)" xlink:href="#path-1"></use>
                <use fill="#FFFFFF" fill-rule="evenodd" xlink:href="#path-1"></use>
            </g>
        </g>
    </g>
</svg>