<?xml version="1.0" encoding="UTF-8"?>
<svg width="118px" height="107px" viewBox="0 0 118 107" version="1.1" xmlns="http://www.w3.org/2000/svg" xmlns:xlink="http://www.w3.org/1999/xlink">
    <!-- Generator: Sketch 44.1 (41455) - http://www.bohemiancoding.com/sketch -->
    <title>Raining</title>
    <desc>Created with Sketch.</desc>
    <defs>
        <path d="M182.619774,294.799114 C190.048043,296.899407 195.5,303.733606 195.5,311.840238 L195.5,312.42017 C195.5,322.205422 187.575944,330.126353 177.801126,330.126353 L106.198874,330.126353 C96.4331837,330.126353 88.5,322.199025 88.5,312.42017 L88.5,311.840238 C88.5,304.726471 92.6879626,298.598021 98.7303913,295.781974 C97.2461015,292.111654 96.4259259,288.080515 96.4259259,283.850541 C96.4259259,266.812258 109.733018,253 126.148148,253 C141.211807,253 153.658136,264.631534 155.605461,279.713724 C158.369301,277.780519 161.698893,276.652082 165.282407,276.652082 C174.8579,276.652082 182.62037,284.709232 182.62037,294.648231 C182.62037,294.698574 182.620171,294.748868 182.619774,294.799114 Z M181.750581,333.608762 L181.814629,333.644264 C182.556067,334.055249 182.821335,334.975214 182.417049,335.704565 L174.935887,349.200938 C174.532836,349.928061 173.606412,350.190372 172.869419,349.781851 L172.805371,349.746348 C172.063933,349.335363 171.798665,348.415398 172.202951,347.686047 L179.684113,334.189674 C180.087164,333.462551 181.013588,333.20024 181.750581,333.608762 Z M157.140581,333.608762 L157.204629,333.644264 C157.946067,334.055249 158.211335,334.975214 157.807049,335.704565 L150.325887,349.200938 C149.922836,349.928061 148.996412,350.190372 148.259419,349.781851 L148.195371,349.746348 C147.453933,349.335363 147.188665,348.415398 147.592951,347.686047 L155.074113,334.189674 C155.477164,333.462551 156.403588,333.20024 157.140581,333.608762 Z M106.850581,333.608762 L106.914629,333.644264 C107.656067,334.055249 107.921335,334.975214 107.517049,335.704565 L100.035887,349.200938 C99.6328361,349.928061 98.7064118,350.190372 97.9694188,349.781851 L97.9053709,349.746348 C97.1639334,349.335363 96.8986654,348.415398 97.3029511,347.686047 L104.784113,334.189674 C105.187164,333.462551 106.113588,333.20024 106.850581,333.608762 Z M133.600581,333.608762 L133.664629,333.644264 C134.406067,334.055249 134.671335,334.975214 134.267049,335.704565 L126.785887,349.200938 C126.382836,349.928061 125.456412,350.190372 124.719419,349.781851 L124.655371,349.746348 C123.913933,349.335363 123.648665,348.415398 124.052951,347.686047 L131.534113,334.189674 C131.937164,333.462551 132.863588,333.20024 133.600581,333.608762 Z M143.784376,333.554468 L143.985274,333.665828 C144.722031,334.074219 144.984735,334.997502 144.577971,335.731324 L140.141346,343.735208 C139.73098,344.475528 138.809726,344.734038 138.075624,344.327119 L137.874726,344.215759 C137.137969,343.807368 136.875265,342.884085 137.282029,342.150263 L141.718654,334.146379 C142.12902,333.406059 143.050274,333.147549 143.784376,333.554468 Z M170.534376,333.554468 L170.735274,333.665828 C171.472031,334.074219 171.734735,334.997502 171.327971,335.731324 L166.891346,343.735208 C166.48098,344.475528 165.559726,344.734038 164.825624,344.327119 L164.624726,344.215759 C163.887969,343.807368 163.625265,342.884085 164.032029,342.150263 L168.468654,334.146379 C168.87902,333.406059 169.800274,333.147549 170.534376,333.554468 Z M120.244376,333.554468 L120.445274,333.665828 C121.182031,334.074219 121.444735,334.997502 121.037971,335.731324 L116.601346,343.735208 C116.19098,344.475528 115.269726,344.734038 114.535624,344.327119 L114.334726,344.215759 C113.597969,343.807368 113.335265,342.884085 113.742029,342.150263 L118.178654,334.146379 C118.58902,333.406059 119.510274,333.147549 120.244376,333.554468 Z" id="path-1"></path>
        <filter x="-7.9%" y="-6.7%" width="115.9%" height="117.5%" filterUnits="objectBoundingBox" id="filter-2">
            <feOffset dx="0" dy="2" in="SourceAlpha" result="shadowOffsetOuter1"></feOffset>
            <feGaussianBlur stdDeviation="2.5" in="shadowOffsetOuter1" result="shadowBlurOuter1"></feGaussianBlur>
            <feColorMatrix values="0 0 0 0 0.00485917412   0 0 0 0 0.499123697   0 0 0 0 0.608152636  0 0 0 1 0" type="matrix" in="shadowBlurOuter1"></feColorMatrix>
        </filter>
    </defs>
    <g id="Page-1" stroke="none" stroke-width="1" fill="none" fill-rule="evenodd">
        <g id="ICONS" transform="translate(-83.000000, -250.000000)">
            <g id="Raining">
                <use fill="black" fill-opacity="1" filter="url(#filter-2)" xlink:href="#path-1"></use>
                <use fill="#FFFFFF" fill-rule="evenodd" xlink:href="#path-1"></use>
            </g>
        </g>
    </g>
</svg>