<?xml version="1.0" encoding="UTF-8"?>
<svg width="55px" height="34px" viewBox="0 0 55 34" version="1.1" xmlns="http://www.w3.org/2000/svg" xmlns:xlink="http://www.w3.org/1999/xlink">
    <!-- Generator: Sketch 44.1 (41455) - http://www.bohemiancoding.com/sketch -->
    <title>Oval 1</title>
    <desc>Created with Sketch.</desc>
    <defs></defs>
    <g id="Page-1" stroke="none" stroke-width="1" fill="none" fill-rule="evenodd">
        <g id="Artboard-2" transform="translate(-204.000000, -493.000000)" fill="#FFFFFF">
            <g id="artwork" transform="translate(184.000000, 24.000000)">
                <path d="M29.953125,502.820505 C24.6689809,502.455129 20.765625,498.337462 20.765625,493.65669 C20.765625,487.986711 25.0503999,483.700704 30.71875,483.700704 C31.0617957,483.700704 31.401816,483.721688 31.7375548,483.762661 C33.1071678,475.77556 39.8813451,469.915493 48.328125,469.915493 C55.3052949,469.915493 61.423236,474.647789 63.5799054,481.403337 C63.600132,481.403225 63.620372,481.403169 63.640625,481.403169 C69.5604272,481.403169 74.359375,486.203496 74.359375,492.125 C74.359375,497.789001 69.9687266,502.427216 64.40625,502.819901 L64.40625,502.846831 L29.953125,502.846831 L29.953125,502.820505 Z" id="Oval-1"></path>
            </g>
        </g>
    </g>
</svg>