<?xml version="1.0" encoding="UTF-8"?>
<svg width="118px" height="114px" viewBox="0 0 118 114" version="1.1" xmlns="http://www.w3.org/2000/svg" xmlns:xlink="http://www.w3.org/1999/xlink">
    <!-- Generator: Sketch 44.1 (41455) - http://www.bohemiancoding.com/sketch -->
    <title>Showering</title>
    <desc>Created with Sketch.</desc>
    <defs>
        <path d="M692.619875,128.607423 C700.048093,130.707586 705.5,137.541226 705.5,145.647189 L705.5,146.937173 C705.5,156.723894 697.575944,164.641975 687.801126,164.641975 L616.198874,164.641975 C606.433184,164.641975 598.5,156.715265 598.5,146.937173 L598.5,145.647189 C598.5,138.536669 602.682885,132.41255 608.719401,129.59494 C607.242053,125.859929 606.425926,121.75923 606.425926,117.45679 C606.425926,100.083685 619.733018,86 636.148148,86 C651.211807,86 663.658136,97.8601067 665.605461,113.238679 C668.369301,111.267485 671.698893,110.116872 675.282407,110.116872 C684.8579,110.116872 692.62037,118.332355 692.62037,128.466667 C692.62037,128.513626 692.620204,128.560545 692.619871,128.607421 Z M619.552584,170.901235 L619.740574,170.901235 C620.570821,170.901235 621.251579,171.579588 621.251579,172.416378 L621.251579,180.620659 C621.251579,181.449942 620.575079,182.135802 619.740574,182.135802 L619.552584,182.135802 C618.722337,182.135802 618.041579,181.457449 618.041579,180.620659 L618.041579,172.416378 C618.041579,171.587095 618.718079,170.901235 619.552584,170.901235 Z M654.9189,169.777778 L655.10689,169.777778 C655.937136,169.777778 656.617895,170.456131 656.617895,171.292922 L656.617895,179.497202 C656.617895,180.326485 655.941395,181.012346 655.10689,181.012346 L654.9189,181.012346 C654.088653,181.012346 653.407895,180.333993 653.407895,179.497202 L653.407895,171.292922 C653.407895,170.463639 654.084395,169.777778 654.9189,169.777778 Z M635.884163,178.765432 L636.072153,178.765432 C636.902399,178.765432 637.583158,179.443785 637.583158,180.280576 L637.583158,188.484856 C637.583158,189.314139 636.906658,190 636.072153,190 L635.884163,190 C635.053916,190 634.373158,189.321647 634.373158,188.484856 L634.373158,180.280576 C634.373158,179.451293 635.049658,178.765432 635.884163,178.765432 Z M670.9689,178.444444 L671.15689,178.444444 C671.987136,178.444444 672.667895,179.122797 672.667895,179.959588 L672.667895,188.163869 C672.667895,188.993152 671.991395,189.679012 671.15689,189.679012 L670.9689,189.679012 C670.138653,189.679012 669.457895,189.000659 669.457895,188.163869 L669.457895,179.959588 C669.457895,179.130305 670.134395,178.444444 670.9689,178.444444 Z M687.300479,169.777778 L687.488469,169.777778 C688.318715,169.777778 688.999474,170.456131 688.999474,171.292922 L688.999474,179.497202 C688.999474,180.326485 688.322974,181.012346 687.488469,181.012346 L687.300479,181.012346 C686.470232,181.012346 685.789474,180.333993 685.789474,179.497202 L685.789474,171.292922 C685.789474,170.463639 686.465974,169.777778 687.300479,169.777778 Z" id="path-1"></path>
        <filter x="-7.9%" y="-6.2%" width="115.9%" height="116.3%" filterUnits="objectBoundingBox" id="filter-2">
            <feOffset dx="0" dy="2" in="SourceAlpha" result="shadowOffsetOuter1"></feOffset>
            <feGaussianBlur stdDeviation="2.5" in="shadowOffsetOuter1" result="shadowBlurOuter1"></feGaussianBlur>
            <feColorMatrix values="0 0 0 0 0.00485917412   0 0 0 0 0.499123697   0 0 0 0 0.608152636  0 0 0 1 0" type="matrix" in="shadowBlurOuter1"></feColorMatrix>
        </filter>
    </defs>
    <g id="Page-1" stroke="none" stroke-width="1" fill="none" fill-rule="evenodd">
        <g id="ICONS" transform="translate(-593.000000, -83.000000)">
            <g id="Showering">
                <use fill="black" fill-opacity="1" filter="url(#filter-2)" xlink:href="#path-1"></use>
                <use fill="#FFFFFF" fill-rule="evenodd" xlink:href="#path-1"></use>
            </g>
        </g>
    </g>
</svg>