<?xml version="1.0" encoding="UTF-8"?>
<svg width="118px" height="114px" viewBox="0 0 118 114" version="1.1" xmlns="http://www.w3.org/2000/svg" xmlns:xlink="http://www.w3.org/1999/xlink">
    <!-- Generator: Sketch 44.1 (41455) - http://www.bohemiancoding.com/sketch -->
    <title>Snowing</title>
    <desc>Created with Sketch.</desc>
    <defs>
        <path d="M358.619878,452.639315 C366.048094,454.737911 371.5,461.566452 371.5,469.666364 L371.5,471.011114 C371.5,480.778507 363.575944,488.702703 353.801126,488.702703 L282.198874,488.702703 C272.433184,488.702703 264.5,480.781908 264.5,471.011114 L264.5,469.666364 C264.5,462.569958 268.6828,456.446504 274.719217,453.62814 C273.241986,449.890369 272.425926,445.786665 272.425926,441.481081 C272.425926,424.09456 285.733018,410 302.148148,410 C317.211807,410 329.658136,421.869265 331.605461,437.259713 C334.369301,435.286996 337.698893,434.135495 341.282407,434.135495 C350.8579,434.135495 358.62037,442.357322 358.62037,452.499459 C358.62037,452.546119 358.620206,452.592737 358.619878,452.639315 Z M283.273636,504.162162 C280.587524,504.162162 278.41,501.959887 278.41,499.243243 C278.41,496.526599 280.587524,494.324324 283.273636,494.324324 C285.959749,494.324324 288.137273,496.526599 288.137273,499.243243 C288.137273,501.959887 285.959749,504.162162 283.273636,504.162162 Z M300.296364,514 C297.610251,514 295.432727,511.797725 295.432727,509.081081 C295.432727,506.364437 297.610251,504.162162 300.296364,504.162162 C302.982476,504.162162 305.16,506.364437 305.16,509.081081 C305.16,511.797725 302.982476,514 300.296364,514 Z M317.805455,504.162162 C315.119342,504.162162 312.941818,501.959887 312.941818,499.243243 C312.941818,496.526599 315.119342,494.324324 317.805455,494.324324 C320.491567,494.324324 322.669091,496.526599 322.669091,499.243243 C322.669091,501.959887 320.491567,504.162162 317.805455,504.162162 Z M335.314545,514 C332.628433,514 330.450909,511.797725 330.450909,509.081081 C330.450909,506.364437 332.628433,504.162162 335.314545,504.162162 C338.000658,504.162162 340.178182,506.364437 340.178182,509.081081 C340.178182,511.797725 338.000658,514 335.314545,514 Z M353.796364,504.162162 C351.110251,504.162162 348.932727,501.959887 348.932727,499.243243 C348.932727,496.526599 351.110251,494.324324 353.796364,494.324324 C356.482476,494.324324 358.66,496.526599 358.66,499.243243 C358.66,501.959887 356.482476,504.162162 353.796364,504.162162 Z" id="path-1"></path>
        <filter x="-7.9%" y="-6.2%" width="115.9%" height="116.3%" filterUnits="objectBoundingBox" id="filter-2">
            <feOffset dx="0" dy="2" in="SourceAlpha" result="shadowOffsetOuter1"></feOffset>
            <feGaussianBlur stdDeviation="2.5" in="shadowOffsetOuter1" result="shadowBlurOuter1"></feGaussianBlur>
            <feColorMatrix values="0 0 0 0 0.00485917412   0 0 0 0 0.499123697   0 0 0 0 0.608152636  0 0 0 1 0" type="matrix" in="shadowBlurOuter1"></feColorMatrix>
        </filter>
    </defs>
    <g id="Page-1" stroke="none" stroke-width="1" fill="none" fill-rule="evenodd">
        <g id="ICONS" transform="translate(-259.000000, -407.000000)">
            <g id="Snowing">
                <use fill="black" fill-opacity="1" filter="url(#filter-2)" xlink:href="#path-1"></use>
                <use fill="#FFFFFF" fill-rule="evenodd" xlink:href="#path-1"></use>
            </g>
        </g>
    </g>
</svg>