<?xml version="1.0" encoding="UTF-8"?>
<svg width="55px" height="47px" viewBox="0 0 55 47" version="1.1" xmlns="http://www.w3.org/2000/svg" xmlns:xlink="http://www.w3.org/1999/xlink">
    <!-- Generator: Sketch 44.1 (41455) - http://www.bohemiancoding.com/sketch -->
    <title>Oval 1</title>
    <desc>Created with Sketch.</desc>
    <defs></defs>
    <g id="Page-1" stroke="none" stroke-width="1" fill="none" fill-rule="evenodd">
        <g id="Artboard-2" transform="translate(-374.000000, -493.000000)" fill="#FFFFFF">
            <g id="artwork" transform="translate(184.000000, 24.000000)">
                <path d="M199.921875,502.820505 C194.637731,502.455129 190.734375,498.337462 190.734375,493.65669 C190.734375,487.986711 195.01915,483.700704 200.6875,483.700704 C201.030546,483.700704 201.370566,483.721688 201.706305,483.762661 C203.075918,475.77556 209.850095,469.915493 218.296875,469.915493 C225.274045,469.915493 231.391986,474.647789 233.548655,481.403337 C233.568882,481.403225 233.589122,481.403169 233.609375,481.403169 C239.529177,481.403169 244.328125,486.203496 244.328125,492.125 C244.328125,497.789001 239.937477,502.427216 234.375,502.819901 L234.375,502.846831 L199.921875,502.846831 L199.921875,502.820505 Z M207.578125,508.973592 C206.732439,508.973592 206.046875,508.287831 206.046875,507.441901 C206.046875,506.595972 206.732439,505.910211 207.578125,505.910211 C208.423811,505.910211 209.109375,506.595972 209.109375,507.441901 C209.109375,508.287831 208.423811,508.973592 207.578125,508.973592 Z M214.46875,508.973592 C213.623064,508.973592 212.9375,508.287831 212.9375,507.441901 C212.9375,506.595972 213.623064,505.910211 214.46875,505.910211 C215.314436,505.910211 216,506.595972 216,507.441901 C216,508.287831 215.314436,508.973592 214.46875,508.973592 Z M221.359375,508.973592 C220.513689,508.973592 219.828125,508.287831 219.828125,507.441901 C219.828125,506.595972 220.513689,505.910211 221.359375,505.910211 C222.205061,505.910211 222.890625,506.595972 222.890625,507.441901 C222.890625,508.287831 222.205061,508.973592 221.359375,508.973592 Z M228.25,508.973592 C227.404314,508.973592 226.71875,508.287831 226.71875,507.441901 C226.71875,506.595972 227.404314,505.910211 228.25,505.910211 C229.095686,505.910211 229.78125,506.595972 229.78125,507.441901 C229.78125,508.287831 229.095686,508.973592 228.25,508.973592 Z M225.1875,515.100352 C224.341814,515.100352 223.65625,514.414591 223.65625,513.568662 C223.65625,512.722733 224.341814,512.036972 225.1875,512.036972 C226.033186,512.036972 226.71875,512.722733 226.71875,513.568662 C226.71875,514.414591 226.033186,515.100352 225.1875,515.100352 Z M218.296875,515.100352 C217.451189,515.100352 216.765625,514.414591 216.765625,513.568662 C216.765625,512.722733 217.451189,512.036972 218.296875,512.036972 C219.142561,512.036972 219.828125,512.722733 219.828125,513.568662 C219.828125,514.414591 219.142561,515.100352 218.296875,515.100352 Z M211.40625,515.100352 C210.560564,515.100352 209.875,514.414591 209.875,513.568662 C209.875,512.722733 210.560564,512.036972 211.40625,512.036972 C212.251936,512.036972 212.9375,512.722733 212.9375,513.568662 C212.9375,514.414591 212.251936,515.100352 211.40625,515.100352 Z" id="Oval-1"></path>
            </g>
        </g>
    </g>
</svg>