<?xml version="1.0" encoding="UTF-8"?>
<svg width="118px" height="117px" viewBox="0 0 118 117" version="1.1" xmlns="http://www.w3.org/2000/svg" xmlns:xlink="http://www.w3.org/1999/xlink">
    <!-- Generator: Sketch 44.1 (41455) - http://www.bohemiancoding.com/sketch -->
    <title>Sun</title>
    <desc>Created with Sketch.</desc>
    <defs>
        <path d="M141.535,174.81 C122.329298,174.81 106.76,159.240702 106.76,140.035 C106.76,120.829298 122.329298,105.26 141.535,105.26 C160.740702,105.26 176.31,120.829298 176.31,140.035 C176.31,159.240702 160.740702,174.81 141.535,174.81 Z M141.378341,86 L141.691659,86 C143.075403,86 144.21,87.1306908 144.21,88.5254685 L144.21,99.5245315 C144.21,100.921395 143.0825,102.05 141.691659,102.05 L141.378341,102.05 C139.994597,102.05 138.86,100.919309 138.86,99.5245315 L138.86,88.5254685 C138.86,87.1286048 139.9875,86 141.378341,86 Z M141.378341,176.95 L141.691659,176.95 C143.075403,176.95 144.21,178.080691 144.21,179.475468 L144.21,190.474532 C144.21,191.871395 143.0825,193 141.691659,193 L141.378341,193 C139.994597,193 138.86,191.869309 138.86,190.474532 L138.86,179.475468 C138.86,178.078605 139.9875,176.95 141.378341,176.95 Z M180.975468,137.36 L191.974532,137.36 C193.371395,137.36 194.5,138.4875 194.5,139.878341 L194.5,140.191659 C194.5,141.575403 193.369309,142.71 191.974532,142.71 L180.975468,142.71 C179.578605,142.71 178.45,141.5825 178.45,140.191659 L178.45,139.878341 C178.45,138.494597 179.580691,137.36 180.975468,137.36 Z M90.0254685,137.36 L101.024532,137.36 C102.421395,137.36 103.55,138.4875 103.55,139.878341 L103.55,140.191659 C103.55,141.575403 102.419309,142.71 101.024532,142.71 L90.0254685,142.71 C88.6286048,142.71 87.5,141.5825 87.5,140.191659 L87.5,139.878341 C87.5,138.494597 88.6306908,137.36 90.0254685,137.36 Z M180.560312,103.646441 C182.217996,103.399048 183.132895,104.481283 182.59947,106.076615 L179.593711,115.066048 C179.062222,116.655589 177.758599,116.904043 176.678552,115.616894 L170.136815,107.820755 C169.058306,106.535438 169.52178,105.293832 171.185504,105.045538 L180.560312,103.646441 Z M177.290245,177.990312 C177.537638,179.647996 176.455403,180.562895 174.860071,180.02947 L165.870638,177.023711 C164.281097,176.492222 164.032643,175.188599 165.319793,174.108552 L173.115931,167.566815 C174.401249,166.488306 175.642854,166.95178 175.891149,168.615504 L177.290245,177.990312 Z M105.719688,179.633559 C104.062004,179.880952 103.147105,178.798717 103.68053,177.203385 L106.686289,168.213952 C107.217778,166.624411 108.521401,166.375957 109.601448,167.663106 L116.143185,175.459245 C117.221694,176.744562 116.75822,177.986168 115.094496,178.234462 L105.719688,179.633559 Z M100.47224,106.074577 C99.9407522,104.485036 100.847675,103.396108 102.511399,103.644403 L111.886206,105.043499 C113.543891,105.290892 114.014942,106.531567 112.934895,107.818716 L106.393158,115.614855 C105.314649,116.900173 104.011425,116.659342 103.478,115.06401 L100.47224,106.074577 Z" id="path-1"></path>
        <filter x="-7.9%" y="-6.1%" width="115.9%" height="115.9%" filterUnits="objectBoundingBox" id="filter-2">
            <feOffset dx="0" dy="2" in="SourceAlpha" result="shadowOffsetOuter1"></feOffset>
            <feGaussianBlur stdDeviation="2.5" in="shadowOffsetOuter1" result="shadowBlurOuter1"></feGaussianBlur>
            <feColorMatrix values="0 0 0 0 0.00485917412   0 0 0 0 0.499123697   0 0 0 0 0.608152636  0 0 0 1 0" type="matrix" in="shadowBlurOuter1"></feColorMatrix>
        </filter>
    </defs>
    <g id="Page-1" stroke="none" stroke-width="1" fill="none" fill-rule="evenodd">
        <g id="ICONS" transform="translate(-82.000000, -83.000000)">
            <g id="Sun">
                <use fill="black" fill-opacity="1" filter="url(#filter-2)" xlink:href="#path-1"></use>
                <use fill="#FFFFFF" fill-rule="evenodd" xlink:href="#path-1"></use>
            </g>
        </g>
    </g>
</svg>