<?xml version="1.0" encoding="UTF-8"?>
<svg width="55px" height="50px" viewBox="0 0 55 50" version="1.1" xmlns="http://www.w3.org/2000/svg" xmlns:xlink="http://www.w3.org/1999/xlink">
    <!-- Generator: Sketch 44.1 (41455) - http://www.bohemiancoding.com/sketch -->
    <title>Group</title>
    <desc>Created with Sketch.</desc>
    <defs></defs>
    <g id="Page-1" stroke="none" stroke-width="1" fill="none" fill-rule="evenodd">
        <g id="Artboard-2" transform="translate(-289.000000, -493.000000)" fill="#FFFFFF">
            <g id="artwork" transform="translate(184.000000, 24.000000)">
                <g id="Group" transform="translate(105.750000, 469.915493)">
                    <polygon id="Path-9" points="40.0252725 25.4052648 27.5625 37.8716196 35.5169431 37.8716196 29.7887767 48.881707 44.5098611 35.3545197 34.9885834 35.3545197"></polygon>
                    <path d="M39.046875,32.931338 L43.640625,32.931338 L43.640625,32.9044078 C49.2031016,32.5117234 53.59375,27.8735081 53.59375,22.209507 C53.59375,16.2880033 48.7948022,11.4876761 42.875,11.4876761 C42.854747,11.4876761 42.834507,11.4877322 42.8142804,11.4878445 C40.657611,4.73229578 34.5396699,0 27.5625,0 C19.1157201,0 12.3415428,5.86006751 10.9719298,13.8471682 C10.636191,13.806195 10.2961707,13.7852113 9.953125,13.7852113 C4.28477486,13.7852113 0,18.0712177 0,23.7411972 C0,28.4219686 3.90335587,32.5396362 9.1875,32.9050116 L9.1875,32.931338 L29.9967949,32.931338 L42.875,20.6778169 L39.046875,32.931338 Z" id="Oval-1"></path>
                    <path d="M7.49768387,40.431177 C7.19868871,40.7302581 7.19868871,41.2151644 7.49768387,41.5142455 C7.79667903,41.8133266 8.28144597,41.8133266 8.58044113,41.5142455 L13.1741911,36.9191751 C13.4731863,36.620094 13.4731863,36.1351877 13.1741911,35.8361066 C12.875196,35.5370255 12.390429,35.5370255 12.0914339,35.8361066 L7.49768387,40.431177 Z" id="Line" fill-rule="nonzero"></path>
                    <path d="M13.6226839,40.431177 C13.3236887,40.7302581 13.3236887,41.2151644 13.6226839,41.5142455 C13.921679,41.8133266 14.406446,41.8133266 14.7054411,41.5142455 L19.2991911,36.9191751 C19.5981863,36.620094 19.5981863,36.1351877 19.2991911,35.8361066 C19.000196,35.5370255 18.515429,35.5370255 18.2164339,35.8361066 L13.6226839,40.431177 Z" id="Line-2" fill-rule="nonzero"></path>
                    <path d="M19.7476839,40.431177 C19.4486887,40.7302581 19.4486887,41.2151644 19.7476839,41.5142455 C20.046679,41.8133266 20.531446,41.8133266 20.8304411,41.5142455 L25.4241911,36.9191751 C25.7231863,36.620094 25.7231863,36.1351877 25.4241911,35.8361066 C25.125196,35.5370255 24.640429,35.5370255 24.3414339,35.8361066 L19.7476839,40.431177 Z" id="Line-3" fill-rule="nonzero"></path>
                </g>
            </g>
        </g>
    </g>
</svg>