<?xml version="1.0" encoding="UTF-8"?>
<svg width="118px" height="119px" viewBox="0 0 118 119" version="1.1" xmlns="http://www.w3.org/2000/svg" xmlns:xlink="http://www.w3.org/1999/xlink">
    <!-- Generator: Sketch 44.1 (41455) - http://www.bohemiancoding.com/sketch -->
    <title>Thunder</title>
    <desc>Created with Sketch.</desc>
    <defs>
        <path d="M358.619804,288.94768 C366.053787,291.022664 371.5,297.840144 371.5,305.930296 C371.5,315.669747 363.602799,323.561255 353.861108,323.561255 L282.138892,323.561255 C272.389679,323.561255 264.5,315.667606 264.5,305.930296 C264.5,298.834749 268.691563,292.720026 274.734213,289.923068 C273.247509,286.324751 272.425926,282.372194 272.425926,278.224502 C272.425926,261.531971 285.733018,248 302.148148,248 C317.211807,248 329.658136,259.395499 331.605461,274.171632 C334.369301,272.277657 337.698893,271.172118 341.282407,271.172118 C350.8579,271.172118 358.62037,279.065768 358.62037,288.803078 C358.62037,288.851324 358.62018,288.899524 358.619799,288.947679 Z M357.675831,329.140404 L357.707857,329.158157 C358.451785,329.570523 358.723785,330.510229 358.311125,331.254687 L351.041811,344.368877 C350.627469,345.116369 349.690004,345.381692 348.944169,344.968269 L348.912143,344.950517 C348.168215,344.538151 347.896215,343.598445 348.308875,342.853986 L355.578189,329.739796 C355.992531,328.992304 356.929996,328.726981 357.675831,329.140404 Z M284.915831,329.140404 L284.947857,329.158157 C285.691785,329.570523 285.963785,330.510229 285.551125,331.254687 L278.281811,344.368877 C277.867469,345.116369 276.930004,345.381692 276.184169,344.968269 L276.152143,344.950517 C275.408215,344.538151 275.136215,343.598445 275.548875,342.853986 L282.818189,329.739796 C283.232531,328.992304 284.169996,328.726981 284.915831,329.140404 Z M344.351137,326.927945 L344.51859,327.020766 C345.258134,327.430702 345.530951,328.368607 345.119469,329.110939 L340.819848,336.867661 C340.4111,337.605061 339.472201,337.877749 338.728863,337.46571 L338.56141,337.372889 C337.821866,336.962953 337.549049,336.025048 337.960531,335.282716 L342.260152,327.525994 C342.6689,326.788594 343.607799,326.515906 344.351137,326.927945 Z M298.341137,326.927945 L298.50859,327.020766 C299.248134,327.430702 299.520951,328.368607 299.109469,329.110939 L294.809848,336.867661 C294.4011,337.605061 293.462201,337.877749 292.718863,337.46571 L292.55141,337.372889 C291.811866,336.962953 291.539049,336.025048 291.950531,335.282716 L296.250152,327.525994 C296.6589,326.788594 297.597799,326.515906 298.341137,326.927945 Z M312.342723,328.685639 C312.794604,327.644005 314.08393,326.799595 315.213213,326.799595 L322.157364,326.799595 C323.29081,326.799595 323.815209,327.632216 323.327153,328.662448 L320.978421,333.620354 C320.491031,334.649179 321.0124,335.483207 322.158135,335.483207 L327.591875,335.483207 C328.730803,335.483207 329.027341,336.157225 328.24752,336.995864 L310.118872,356.491853 C309.342047,357.32727 308.932147,357.110827 309.204749,356.002664 L312.203309,343.813154 C312.475279,342.707565 311.777312,341.811309 310.63156,341.811309 L308.712736,341.811309 C307.572714,341.811309 307.017336,340.961202 307.466747,339.925265 L312.342723,328.685639 Z" id="path-1"></path>
        <filter x="-7.9%" y="-6.0%" width="115.9%" height="115.6%" filterUnits="objectBoundingBox" id="filter-2">
            <feOffset dx="0" dy="2" in="SourceAlpha" result="shadowOffsetOuter1"></feOffset>
            <feGaussianBlur stdDeviation="2.5" in="shadowOffsetOuter1" result="shadowBlurOuter1"></feGaussianBlur>
            <feColorMatrix values="0 0 0 0 0.00485917412   0 0 0 0 0.499123697   0 0 0 0 0.608152636  0 0 0 1 0" type="matrix" in="shadowBlurOuter1"></feColorMatrix>
        </filter>
    </defs>
    <g id="Page-1" stroke="none" stroke-width="1" fill="none" fill-rule="evenodd">
        <g id="ICONS" transform="translate(-259.000000, -245.000000)">
            <g id="Thunder">
                <use fill="black" fill-opacity="1" filter="url(#filter-2)" xlink:href="#path-1"></use>
                <use fill="#FFFFFF" fill-rule="evenodd" xlink:href="#path-1"></use>
            </g>
        </g>
    </g>
</svg>